<svg width="56" height="56" viewBox="0 0 56 56" fill="none" xmlns="http://www.w3.org/2000/svg">
<path d="M0 13C0 3.79131 6.83333 0.5 10.5 0L31.4089 0.217396C45.9089 3.2174 41.6364 25 40 28C37 33.5 30.5 35 27.5 35C27.5 25.5 18.8715 29.3822 11.5 28C3.5 26.5 -2.16067e-06 24.5 0 13Z" fill="white"/>
<path d="M21.5 31.5H14V45C14 51.8 20 54.8333 23 55.5H28C28 50.3 31 49 32.5 49H44.5C54.5 49 56 37.6667 55.5 32C55.5 26 45.5 21.7248 45.5 22C45.5 33.5 33.5 38.5 32 38.5H24C24 34.1 23.5 31.5 21.5 31.5Z" fill="white"/>
</svg>
